<svg width="16" height="16" viewBox="0 0 16 16" fill="none" xmlns="http://www.w3.org/2000/svg">
<path fill-rule="evenodd" clip-rule="evenodd" d="M8 15C11.866 15 15 11.866 15 8C15 4.13401 11.866 1 8 1C4.13401 1 1 4.13401 1 8C1 11.866 4.13401 15 8 15Z" stroke="#999999"/>
<path fill-rule="evenodd" clip-rule="evenodd" d="M7.79287 4.00781C7.02987 4.00781 6.42987 4.24381 5.99287 4.71381H5.99387C5.55687 5.18481 5.33887 5.80681 5.33887 6.58081H6.29487C6.31287 6.11481 6.38587 5.75881 6.51487 5.51181C6.74487 5.06781 7.15787 4.84581 7.75487 4.84581C8.23887 4.84581 8.58487 4.97481 8.79487 5.23181C9.00487 5.48981 9.10887 5.79481 9.10887 6.14581C9.10887 6.39581 9.03787 6.63781 8.89487 6.87081C8.81587 7.00281 8.71187 7.12981 8.58287 7.25181L8.15287 7.67581C7.74187 8.08081 7.47487 8.43981 7.35287 8.75281C7.23087 9.06581 7.16987 9.47881 7.16987 9.99081H8.12487C8.12487 9.53981 8.17687 9.19881 8.27887 8.96781C8.38087 8.73681 8.60387 8.45481 8.94687 8.12181C9.41987 7.66381 9.73387 7.31581 9.88987 7.07981C10.0459 6.84381 10.1239 6.53581 10.1239 6.15581C10.1239 5.52981 9.91087 5.01481 9.48687 4.61181C9.06287 4.20881 8.49787 4.00781 7.79287 4.00781ZM8.21687 10.8828H7.14787H7.14687V11.9998H8.21687V10.8828Z" fill="#999999"/>
</svg>
