<svg width="30" height="30" viewBox="0 0 30 30" fill="none" xmlns="http://www.w3.org/2000/svg">
<g opacity="0.5">
<path fill-rule="evenodd" clip-rule="evenodd" d="M6.32141 6.32116C6.97228 5.67029 8.02756 5.67029 8.67843 6.32116L23.6784 21.3212C24.3293 21.972 24.3293 23.0273 23.6784 23.6782C23.0276 24.3291 21.9723 24.3291 21.3214 23.6782L6.32141 8.67819C5.67053 8.02731 5.67053 6.97204 6.32141 6.32116Z" fill="#A3D6FF"/>
<path fill-rule="evenodd" clip-rule="evenodd" d="M23.6786 6.32116C24.3295 6.97204 24.3295 8.02731 23.6786 8.67819L8.67859 23.6782C8.02772 24.3291 6.97244 24.3291 6.32157 23.6782C5.67069 23.0273 5.67069 21.972 6.32157 21.3212L21.3216 6.32116C21.9724 5.67029 23.0277 5.67029 23.6786 6.32116Z" fill="#A3D6FF"/>
</g>
</svg>
